<svg width="889" height="434" style="-webkit-tap-highlight-color: rgba(0, 0, 0, 0);"><g><path d="M587.34,10L597.59,15.584L606.617,29.499L609.732,31.061L625.586,40.598L632.014,41.386L634.585,42.163L636.726,44.91L637.4,48.949L636.973,60.034L636.411,108.112L634.67,108.599L634.532,123.124L634.857,124.951L634.458,130.267L634.169,158.706L633.929,183.323L633.748,209.78L633.279,214.912L632.986,221.56L643.069,226.957L642.702,233.499L637.676,233.004L631.908,231.35L631.276,237.335L599.765,237.968L599.31,239.639L600.14,248.15L600.048,249.073L597.247,250.168L590.826,250.233L590.777,260.807L590.717,264.071L588.541,264.006L590.226,268.467L591.674,271.641L595.033,270.628L595.672,270.8L596.152,271.429L597.777,275.187L597.936,277.259L599.055,279.791L599.126,281.417L591.48,282.185L590.809,283.092L589.671,283.942L588.506,284.048L587.778,284.502L586.726,284.195L585.546,284.387L583.593,286.422L583.378,287.48L584.716,286.72L584.663,287.807L582.385,290.915L580.083,290.854L579.588,291.103L579.691,291.426L581.679,291.81L582.127,292.223L581.333,293.195L581.35,294.037L583.402,297.962L583.484,298.661L581.767,299.47L581.905,302.484L578.974,304.935L578.197,306.145L576.349,307.958L576.487,308.967L577.331,310.373L577.324,311.9L576.664,312.501L576.989,314.172L571.419,316.296L571.483,317.644L572.016,317.787L572.122,321.52L572.51,321.982L575.096,321.075L575.576,321.161L576.078,322.002L576.349,322.051L578.43,320.936L578.843,320.025L580.482,320.234L582.293,319.743L582.957,319.155L583.812,317.587L584.66,316.921L585.504,316.831L588.086,317.439L590.314,316.263L593.359,315.908L594.68,316.03L596.919,316.761L601.175,316.296L601.415,316.524L601.348,318.935L601.612,320.025L602.432,322.108L605.084,325.846L605.409,326.741L604.275,329.081L603.996,330.736L595.891,336.736L595.043,337.827L594.796,338.578L594.687,340.894L598.349,345.661L599.07,347.27L599.765,351.085L599.822,352.429L599.25,353.552L598.395,353.944L597.049,353.908L594.362,352.646L589.463,352.866L587.351,357.902L585.617,360.476L585.67,363.216L583.975,365.079L583.247,366.12L583.66,368.019L583.085,370.307L583.109,371.209L584.695,373.403L584.783,374.036L584.218,374.656L580.898,376.278L579.733,377.287L579.327,378.018L577.706,385.014L575.283,388.98L575.477,393.926L575.191,394.669L573.22,394.992L572.733,395.588L572.772,396.503L577.55,402.686L579.369,406.676L581.612,408.853L581.732,409.274L579.977,410.172L574.414,414.587L569.198,417.931L564.935,421.668L564.295,421.66L559.923,417.666L553.827,423.861L551.644,424L549.278,423.338L543.843,420.778L543.663,420.288L543.832,419.026L546.59,416.11L546.714,414.321L545.139,413.288L541.385,411.916L540.812,409.278L538.464,405.569L533.752,400.015L532.891,398.398L531.552,396.707L530.764,397.132L529.751,397.989L528.871,399.407L527.395,404.744L523.418,408.395L521.299,409.588L517.834,410.858L514.631,411.365L511.382,410.327L505.971,406.954L502.955,405.941L502.337,405.414L501.814,404.087L501.599,402.412L500.61,399.921L498.95,399.174L498.893,398.59L500.2,397.267L499.766,396.266L498.922,396.486L496.552,399.023L491.628,389.352L489.022,389.486L486.67,385.998L484.289,379.991L483.975,379.819L483.092,381.187L480.401,382.286L473.221,386.248L472.278,386.329L471.218,387.399L470.929,388.049L467.845,388.784L465.507,390.899L464.458,391.357L464.176,390.957L467.298,384.704L466.199,382.27L465.822,382.118L456.95,387.158L456.604,387.056L453.421,383.262L448.417,379.48L447.234,377.099L446.428,375.718L444.691,370.972L443.504,368.963L438.312,370.58L437.277,367.125L435.826,364.221L434.042,362.452L432.732,360.406L430.677,358.495L429.465,356.22L425.393,352.343L423.009,353.328L419.12,356.906L417.34,358.098L411.573,360.737L410.655,361.476L408.677,363.641L406.731,368.628L405.908,370.139L404.587,371.348L400.921,373.746L399.06,372.055L396.556,371.295L394.507,369.817L393.96,370.094L392.173,369.102L391.632,369.886L388.701,367.979L387.105,367.856L386.592,368.142L386.225,368.84L385.13,372.647L381.892,375.947L379.868,378.892L378.773,380.048L376.679,381.436L372.172,384.063L370.968,384.377L370.512,382.919L370.445,380.109L372.67,379.954L373.588,378.537L371.353,375.477L368.435,372.757L367.182,373.611L364.441,376.588L360.263,379.913L356.392,383.785L355.135,384.536L353.132,384.728L354.008,387.828L355.113,387.697L357.187,391.365L353.831,392.427L352.952,393.031L351.243,396.062L348.728,397.066L346.171,397.842L344.628,398.684L342.66,400.701L341.618,402.768L330.906,413.284L322.759,420.602L296.093,400.579L276.492,376.568L267.073,363.465L256.82,343.676L251.617,329.592L248.534,314.094L246.634,297.713L245.931,277.54L246.761,256.488L248.474,247.941L251.441,241.135L253.984,234.107L258.819,226.148L264.569,217.682L271.971,209.948L280.296,202.413L290.266,196.762L301.674,193.215L304.185,192.525L310.669,189.938L331.765,181.455L389.457,158.596L433.933,140.962L452.457,131.547L469.117,118.645L500.822,96.244L524.792,73.878L543.384,55.587L552.866,46.586L559.965,39.101L577.858,20.543Z" fill="#eee" opacity="0.5"></path><path d="M587.34,10L597.59,15.584L606.617,29.499L609.732,31.061L625.586,40.598L632.014,41.386L634.585,42.163L636.726,44.91L637.4,48.949L636.973,60.034L636.411,108.112L634.67,108.599L634.532,123.124L634.857,124.951L634.458,130.267L634.169,158.706L633.929,183.323L633.748,209.78L633.279,214.912L632.986,221.56L643.069,226.957L642.702,233.499L637.676,233.004L631.908,231.35L631.276,237.335L599.765,237.968L599.31,239.639L600.14,248.15L600.048,249.073L597.247,250.168L590.826,250.233L590.777,260.807L590.717,264.071L588.541,264.006L590.226,268.467L591.674,271.641L595.033,270.628L595.672,270.8L596.152,271.429L597.777,275.187L597.936,277.259L599.055,279.791L599.126,281.417L591.48,282.185L590.809,283.092L589.671,283.942L588.506,284.048L587.778,284.502L586.726,284.195L585.546,284.387L583.593,286.422L583.378,287.48L584.716,286.72L584.663,287.807L582.385,290.915L580.083,290.854L579.588,291.103L579.691,291.426L581.679,291.81L582.127,292.223L581.333,293.195L581.35,294.037L583.402,297.962L583.484,298.661L581.767,299.47L581.905,302.484L578.974,304.935L578.197,306.145L576.349,307.958L576.487,308.967L577.331,310.373L577.324,311.9L576.664,312.501L576.989,314.172L571.419,316.296L571.483,317.644L572.016,317.787L572.122,321.52L572.51,321.982L575.096,321.075L575.576,321.161L576.078,322.002L576.349,322.051L578.43,320.936L578.843,320.025L580.482,320.234L582.293,319.743L582.957,319.155L583.812,317.587L584.66,316.921L585.504,316.831L588.086,317.439L590.314,316.263L593.359,315.908L594.68,316.03L596.919,316.761L601.175,316.296L601.415,316.524L601.348,318.935L601.612,320.025L602.432,322.108L605.084,325.846L605.409,326.741L604.275,329.081L603.996,330.736L595.891,336.736L595.043,337.827L594.796,338.578L594.687,340.894L598.349,345.661L599.07,347.27L599.765,351.085L599.822,352.429L599.25,353.552L598.395,353.944L597.049,353.908L594.362,352.646L589.463,352.866L587.351,357.902L585.617,360.476L585.67,363.216L583.975,365.079L583.247,366.12L583.66,368.019L583.085,370.307L583.109,371.209L584.695,373.403L584.783,374.036L584.218,374.656L580.898,376.278L579.733,377.287L579.327,378.018L577.706,385.014L575.283,388.98L575.477,393.926L575.191,394.669L573.22,394.992L572.733,395.588L572.772,396.503L577.55,402.686L579.369,406.676L581.612,408.853L581.732,409.274L579.977,410.172L574.414,414.587L569.198,417.931L564.935,421.668L564.295,421.66L559.923,417.666L553.827,423.861L551.644,424L549.278,423.338L543.843,420.778L543.663,420.288L543.832,419.026L546.59,416.11L546.714,414.321L545.139,413.288L541.385,411.916L540.812,409.278L538.464,405.569L533.752,400.015L532.891,398.398L531.552,396.707L530.764,397.132L529.751,397.989L528.871,399.407L527.395,404.744L523.418,408.395L521.299,409.588L517.834,410.858L514.631,411.365L511.382,410.327L505.971,406.954L502.955,405.941L502.337,405.414L501.814,404.087L501.599,402.412L500.61,399.921L498.95,399.174L498.893,398.59L500.2,397.267L499.766,396.266L498.922,396.486L496.552,399.023L491.628,389.352L489.022,389.486L486.67,385.998L484.289,379.991L483.975,379.819L483.092,381.187L480.401,382.286L473.221,386.248L472.278,386.329L471.218,387.399L470.929,388.049L467.845,388.784L465.507,390.899L464.458,391.357L464.176,390.957L467.298,384.704L466.199,382.27L465.822,382.118L456.95,387.158L456.604,387.056L453.421,383.262L448.417,379.48L447.234,377.099L446.428,375.718L444.691,370.972L443.504,368.963L438.312,370.58L437.277,367.125L435.826,364.221L434.042,362.452L432.732,360.406L430.677,358.495L429.465,356.22L425.393,352.343L423.009,353.328L419.12,356.906L417.34,358.098L411.573,360.737L410.655,361.476L408.677,363.641L406.731,368.628L405.908,370.139L404.587,371.348L400.921,373.746L399.06,372.055L396.556,371.295L394.507,369.817L393.96,370.094L392.173,369.102L391.632,369.886L388.701,367.979L387.105,367.856L386.592,368.142L386.225,368.84L385.13,372.647L381.892,375.947L379.868,378.892L378.773,380.048L376.679,381.436L372.172,384.063L370.968,384.377L370.512,382.919L370.445,380.109L372.67,379.954L373.588,378.537L371.353,375.477L368.435,372.757L367.182,373.611L364.441,376.588L360.263,379.913L356.392,383.785L355.135,384.536L353.132,384.728L354.008,387.828L355.113,387.697L357.187,391.365L353.831,392.427L352.952,393.031L351.243,396.062L348.728,397.066L346.171,397.842L344.628,398.684L342.66,400.701L341.618,402.768L330.906,413.284L322.759,420.602L296.093,400.579L276.492,376.568L267.073,363.465L256.82,343.676L251.617,329.592L248.534,314.094L246.634,297.713L245.931,277.54L246.761,256.488L248.474,247.941L251.441,241.135L253.984,234.107L258.819,226.148L264.569,217.682L271.971,209.948L280.296,202.413L290.266,196.762L301.674,193.215L304.185,192.525L310.669,189.938L331.765,181.455L389.457,158.596L433.933,140.962L452.457,131.547L469.117,118.645L500.822,96.244L524.792,73.878L543.384,55.587L552.866,46.586L559.965,39.101L577.858,20.543Z" stroke="#747569" stroke-width="1" stroke-dasharray="3,3" fill="none"></path><path d="M587.34,10L597.59,15.584L606.617,29.499L609.732,31.061L625.586,40.598L632.014,41.386L634.585,42.163L636.726,44.91L637.4,48.949L636.973,60.034L636.411,108.112L634.67,108.599L634.532,123.124L634.857,124.951L634.458,130.267L634.169,158.706L633.929,183.323L633.748,209.78L633.279,214.912L632.986,221.56L643.069,226.957L642.702,233.499L637.676,233.004L631.908,231.35L631.276,237.335L599.765,237.968L599.31,239.639L600.14,248.15L600.048,249.073L597.247,250.168L590.826,250.233L590.777,260.807L590.717,264.071L588.541,264.006L590.226,268.467L591.674,271.641L595.033,270.628L595.672,270.8L596.152,271.429L597.777,275.187L597.936,277.259L599.055,279.791L599.126,281.417L591.48,282.185L590.809,283.092L589.671,283.942L588.506,284.048L587.778,284.502L586.726,284.195L585.546,284.387L583.593,286.422L583.378,287.48L584.716,286.72L584.663,287.807L582.385,290.915L580.083,290.854L579.588,291.103L579.691,291.426L581.679,291.81L582.127,292.223L581.333,293.195L581.35,294.037L583.402,297.962L583.484,298.661L581.767,299.47L581.905,302.484L578.974,304.935L578.197,306.145L576.349,307.958L576.487,308.967L577.331,310.373L577.324,311.9L576.664,312.501L576.989,314.172L571.419,316.296L571.483,317.644L572.016,317.787L572.122,321.52L572.51,321.982L575.096,321.075L575.576,321.161L576.078,322.002L576.349,322.051L578.43,320.936L578.843,320.025L580.482,320.234L582.293,319.743L582.957,319.155L583.812,317.587L584.66,316.921L585.504,316.831L588.086,317.439L590.314,316.263L593.359,315.908L594.68,316.03L596.919,316.761L601.175,316.296L601.415,316.524L601.348,318.935L601.612,320.025L602.432,322.108L605.084,325.846L605.409,326.741L604.275,329.081L603.996,330.736L595.891,336.736L595.043,337.827L594.796,338.578L594.687,340.894L598.349,345.661L599.07,347.27L599.765,351.085L599.822,352.429L599.25,353.552L598.395,353.944L597.049,353.908L594.362,352.646L589.463,352.866L587.351,357.902L585.617,360.476L585.67,363.216L583.975,365.079L583.247,366.12L583.66,368.019L583.085,370.307L583.109,371.209L584.695,373.403L584.783,374.036L584.218,374.656L580.898,376.278L579.733,377.287L579.327,378.018L577.706,385.014L575.283,388.98L575.477,393.926L575.191,394.669L573.22,394.992L572.733,395.588L572.772,396.503L577.55,402.686L579.369,406.676L581.612,408.853L581.732,409.274L579.977,410.172L574.414,414.587L569.198,417.931L564.935,421.668L564.295,421.66L559.923,417.666L553.827,423.861L551.644,424L549.278,423.338L543.843,420.778L543.663,420.288L543.832,419.026L546.59,416.11L546.714,414.321L545.139,413.288L541.385,411.916L540.812,409.278L538.464,405.569L533.752,400.015L532.891,398.398L531.552,396.707L530.764,397.132L529.751,397.989L528.871,399.407L527.395,404.744L523.418,408.395L521.299,409.588L517.834,410.858L514.631,411.365L511.382,410.327L505.971,406.954L502.955,405.941L502.337,405.414L501.814,404.087L501.599,402.412L500.61,399.921L498.95,399.174L498.893,398.59L500.2,397.267L499.766,396.266L498.922,396.486L496.552,399.023L491.628,389.352L489.022,389.486L486.67,385.998L484.289,379.991L483.975,379.819L483.092,381.187L480.401,382.286L473.221,386.248L472.278,386.329L471.218,387.399L470.929,388.049L467.845,388.784L465.507,390.899L464.458,391.357L464.176,390.957L467.298,384.704L466.199,382.27L465.822,382.118L456.95,387.158L456.604,387.056L453.421,383.262L448.417,379.48L447.234,377.099L446.428,375.718L444.691,370.972L443.504,368.963L438.312,370.58L437.277,367.125L435.826,364.221L434.042,362.452L432.732,360.406L430.677,358.495L429.465,356.22L425.393,352.343L423.009,353.328L419.12,356.906L417.34,358.098L411.573,360.737L410.655,361.476L408.677,363.641L406.731,368.628L405.908,370.139L404.587,371.348L400.921,373.746L399.06,372.055L396.556,371.295L394.507,369.817L393.96,370.094L392.173,369.102L391.632,369.886L388.701,367.979L387.105,367.856L386.592,368.142L386.225,368.84L385.13,372.647L381.892,375.947L379.868,378.892L378.773,380.048L376.679,381.436L372.172,384.063L370.968,384.377L370.512,382.919L370.445,380.109L372.67,379.954L373.588,378.537L371.353,375.477L368.435,372.757L367.182,373.611L364.441,376.588L360.263,379.913L356.392,383.785L355.135,384.536L353.132,384.728L354.008,387.828L355.113,387.697L357.187,391.365L353.831,392.427L352.952,393.031L351.243,396.062L348.728,397.066L346.171,397.842L344.628,398.684L342.66,400.701L341.618,402.768L330.906,413.284L322.759,420.602L296.093,400.579L276.492,376.568L267.073,363.465L256.82,343.676L251.617,329.592L248.534,314.094L246.634,297.713L245.931,277.54L246.761,256.488L248.474,247.941L251.441,241.135L253.984,234.107L258.819,226.148L264.569,217.682L271.971,209.948L280.296,202.413L290.266,196.762L301.674,193.215L304.185,192.525L310.669,189.938L331.765,181.455L389.457,158.596L433.933,140.962L452.457,131.547L469.117,118.645L500.822,96.244L524.792,73.878L543.384,55.587L552.866,46.586L559.965,39.101L577.858,20.543Z" stroke="#333" stroke-width="2" stroke-dasharray="none" fill="none"></path></g></svg>